<?xml version="1.0" encoding="utf-8"?>
<!-- Generator: Adobe Illustrator 27.2.0, SVG Export Plug-In . SVG Version: 6.00 Build 0)  -->
<svg version="1.1" xmlns="http://www.w3.org/2000/svg" xmlns:xlink="http://www.w3.org/1999/xlink" x="0px" y="0px"
	 viewBox="0 0 595.3 595.3" style="enable-background:new 0 0 595.3 595.3;" xml:space="preserve">
<style type="text/css">
	.st0{fill:url(#SVGID_1_);}
	.st1{fill:#FFFFFF;}
</style>
<g id="Capa_2">
	<linearGradient id="SVGID_1_" gradientUnits="userSpaceOnUse" x1="14.6907" y1="14.6907" x2="582.3093" y2="582.3093">
		<stop  offset="0" style="stop-color:#002994"/>
		<stop  offset="0.2462" style="stop-color:#011D7F"/>
		<stop  offset="0.7402" style="stop-color:#030859"/>
		<stop  offset="1" style="stop-color:#04004A"/>
	</linearGradient>
	<path class="st0" d="M548.9,596.1H48.1C22,596.1,0.9,575,0.9,548.9V48.1C0.9,22,22,0.9,48.1,0.9h500.8c26.1,0,47.3,21.2,47.3,47.3
		v500.8C596.2,575,575,596.1,548.9,596.1z"/>
</g>
<g id="Capa_3">
</g>
<g id="Capa_1">
	<g id="Capa_1_00000101794378229575391790000004818175274589740928_">
		<path class="st1" d="M278.9,130.3l-59.6,0c-1.4,0-2.5,1.1-2.5,2.5l0,158.3c0,2.4-3,3.4-4.4,1.6c-18.8-23.1-92.5-113.6-122.6-152.2
			c-10.3-13.3-45.7-10.3-45.7-10.3l237.4,303.9l0-301.3C281.4,131.5,280.2,130.3,278.9,130.3z"/>
		<g id="Capa_2_00000041988376129234179410000009078178993068743612_">
		</g>
		<path class="st1" d="M525.6,326.4c-1.7,1.6-7.8,5-10.8,6.7c-1,0.6-2.3,0.3-3-0.7c-5.3-7.1-32.3-42.8-37.8-50.7
			c-0.8-1.1-0.5-2.6,0.5-3.4c12.6-9.9,21.9-21.9,21.9-38.8c0-29.6-21.6-44.1-52.6-44.5c-0.1,0-50.9-1.2-59.5-0.9
			c-1.3,0-2.3,1.1-2.2,2.4l1.1,79c0,1.4-1.1,2.5-2.4,2.5h-43.4l45.3,60.1c0.3,0.4,0.5,1,0.5,1.5l0,124.9c0,1.4-1.1,2.5-2.4,2.5H318
			c-1.3,0-2.4-1.1-2.4-2.5V129.9l6.6,0c6.5,0,84.1,0.2,104.4,0.1c15.8-0.1,60,2.1,81.9,11.6C580.6,173.1,584.3,272.9,525.6,326.4z"
			/>
		<g>
			<path class="st1" d="M583.4,466.2h-67.2c-4.9,0-9.6-2.4-12.6-6.4L386.2,303.5h66.5c4.9,0,9.5,2.3,12.5,6.3L583.4,466.2z"/>
		</g>
		<g id="Capa_4">
		</g>
		<path class="st1" d="M375.3,372.5"/>
		<path class="st1" d="M16.1,466h59.6c1.4,0,2.5-1.1,2.5-2.5V305.2c0-2.4,3-3.4,4.4-1.6c18.8,23.1,92.5,113.6,122.6,152.2
			c10.3,13.3,45.7,10.3,45.7,10.3L13.6,162.2l0,301.3C13.6,464.9,14.7,466,16.1,466z"/>
	</g>
</g>
</svg>
